<?xml version="1.0" encoding="UTF-8" standalone="no"?><svg xmlns="http://www.w3.org/2000/svg" xmlns:xlink="http://www.w3.org/1999/xlink" contentScriptType="application/ecmascript" contentStyleType="text/css" height="298px" preserveAspectRatio="none" style="width:681px;height:298px;" version="1.1" viewBox="0 0 681 298" width="681px" zoomAndPan="magnify"><defs><filter height="300%" id="fnrf2dxj9e3lx" width="300%" x="-1" y="-1"><feGaussianBlur result="blurOut" stdDeviation="2.0"/><feColorMatrix in="blurOut" result="blurOut2" type="matrix" values="0 0 0 0 0 0 0 0 0 0 0 0 0 0 0 0 0 0 .4 0"/><feOffset dx="4.0" dy="4.0" in="blurOut2" result="blurOut3"/><feBlend in="SourceGraphic" in2="blurOut3" mode="normal"/></filter></defs><g><rect fill="#ADD8E6" height="283.2578" style="stroke: #A80036; stroke-width: 1.0;" width="186.5" x="4" y="4"/><text fill="#000000" font-family="sans-serif" font-size="13" font-weight="bold" lengthAdjust="spacingAndGlyphs" textLength="116" x="39.25" y="16.0669">Local Computer</text><rect fill="#ADD8E6" height="283.2578" style="stroke: #A80036; stroke-width: 1.0;" width="237" x="313.5" y="4"/><text fill="#000000" font-family="sans-serif" font-size="13" font-weight="bold" lengthAdjust="spacingAndGlyphs" textLength="109" x="377.5" y="16.0669">Remote Server</text><line style="stroke: #A80036; stroke-width: 1.0; stroke-dasharray: 5.0,5.0;" x1="45" x2="45" y1="85.4297" y2="221.9609"/><line style="stroke: #A80036; stroke-width: 1.0; stroke-dasharray: 5.0,5.0;" x1="161.5" x2="161.5" y1="85.4297" y2="221.9609"/><line style="stroke: #A80036; stroke-width: 1.0; stroke-dasharray: 5.0,5.0;" x1="277.5" x2="277.5" y1="85.4297" y2="221.9609"/><line style="stroke: #A80036; stroke-width: 1.0; stroke-dasharray: 5.0,5.0;" x1="376.5" x2="376.5" y1="85.4297" y2="221.9609"/><line style="stroke: #A80036; stroke-width: 1.0; stroke-dasharray: 5.0,5.0;" x1="496.5" x2="496.5" y1="85.4297" y2="221.9609"/><line style="stroke: #A80036; stroke-width: 1.0; stroke-dasharray: 5.0,5.0;" x1="615.5" x2="615.5" y1="85.4297" y2="221.9609"/><rect fill="#FEFECE" filter="url(#fnrf2dxj9e3lx)" height="30.2969" style="stroke: #A80036; stroke-width: 1.5;" width="71" x="8" y="50.1328"/><text fill="#000000" font-family="sans-serif" font-size="14" lengthAdjust="spacingAndGlyphs" textLength="57" x="15" y="70.1279">Browser</text><rect fill="#FEFECE" filter="url(#fnrf2dxj9e3lx)" height="30.2969" style="stroke: #A80036; stroke-width: 1.5;" width="71" x="8" y="220.9609"/><text fill="#000000" font-family="sans-serif" font-size="14" lengthAdjust="spacingAndGlyphs" textLength="57" x="15" y="240.9561">Browser</text><text fill="#000000" font-family="sans-serif" font-size="14" lengthAdjust="spacingAndGlyphs" textLength="44" x="136.5" y="82.1279">Cache</text><path d="M143.5,33.1328 C143.5,23.1328 161.5,23.1328 161.5,23.1328 C161.5,23.1328 179.5,23.1328 179.5,33.1328 L179.5,59.1328 C179.5,69.1328 161.5,69.1328 161.5,69.1328 C161.5,69.1328 143.5,69.1328 143.5,59.1328 L143.5,33.1328 " fill="#FEFECE" filter="url(#fnrf2dxj9e3lx)" style="stroke: #000000; stroke-width: 1.5;"/><path d="M143.5,33.1328 C143.5,43.1328 161.5,43.1328 161.5,43.1328 C161.5,43.1328 179.5,43.1328 179.5,33.1328 " fill="none" style="stroke: #000000; stroke-width: 1.5;"/><text fill="#000000" font-family="sans-serif" font-size="14" lengthAdjust="spacingAndGlyphs" textLength="44" x="136.5" y="233.9561">Cache</text><path d="M143.5,247.2578 C143.5,237.2578 161.5,237.2578 161.5,237.2578 C161.5,237.2578 179.5,237.2578 179.5,247.2578 L179.5,273.2578 C179.5,283.2578 161.5,283.2578 161.5,283.2578 C161.5,283.2578 143.5,283.2578 143.5,273.2578 L143.5,247.2578 " fill="#FEFECE" filter="url(#fnrf2dxj9e3lx)" style="stroke: #000000; stroke-width: 1.5;"/><path d="M143.5,247.2578 C143.5,257.2578 161.5,257.2578 161.5,257.2578 C161.5,257.2578 179.5,257.2578 179.5,247.2578 " fill="none" style="stroke: #000000; stroke-width: 1.5;"/><text fill="#000000" font-family="sans-serif" font-size="14" lengthAdjust="spacingAndGlyphs" textLength="54" x="247.5" y="82.1279">Internet</text><ellipse cx="277.5" cy="53.1328" fill="#FEFECE" filter="url(#fnrf2dxj9e3lx)" rx="12" ry="12" style="stroke: #A80036; stroke-width: 2.0;"/><polygon fill="#A80036" points="273.5,41.1328,279.5,36.1328,277.5,41.1328,279.5,46.1328,273.5,41.1328" style="stroke: #A80036; stroke-width: 1.0;"/><text fill="#000000" font-family="sans-serif" font-size="14" lengthAdjust="spacingAndGlyphs" textLength="54" x="247.5" y="233.9561">Internet</text><ellipse cx="277.5" cy="253.2578" fill="#FEFECE" filter="url(#fnrf2dxj9e3lx)" rx="12" ry="12" style="stroke: #A80036; stroke-width: 2.0;"/><polygon fill="#A80036" points="273.5,241.2578,279.5,236.2578,277.5,241.2578,279.5,246.2578,273.5,241.2578" style="stroke: #A80036; stroke-width: 1.0;"/><path d="M322.5,59.1328 L431.5,59.1328 C436.5,59.1328 436.5,72.2813 436.5,72.2813 C436.5,72.2813 436.5,85.4297 431.5,85.4297 L322.5,85.4297 C317.5,85.4297 317.5,72.2813 317.5,72.2813 C317.5,72.2813 317.5,59.1328 322.5,59.1328 " fill="#FEFECE" filter="url(#fnrf2dxj9e3lx)" style="stroke: #A80036; stroke-width: 2.0;"/><path d="M431.5,59.1328 C426.5,59.1328 426.5,72.2813 426.5,72.2813 C426.5,85.4297 431.5,85.4297 431.5,85.4297 " fill="none" style="stroke: #A80036; stroke-width: 2.0;"/><text fill="#000000" font-family="sans-serif" font-size="14" lengthAdjust="spacingAndGlyphs" textLength="99" x="322.5" y="77.1279">Load_balancer</text><path d="M322.5,220.9609 L431.5,220.9609 C436.5,220.9609 436.5,234.1094 436.5,234.1094 C436.5,234.1094 436.5,247.2578 431.5,247.2578 L322.5,247.2578 C317.5,247.2578 317.5,234.1094 317.5,234.1094 C317.5,234.1094 317.5,220.9609 322.5,220.9609 " fill="#FEFECE" filter="url(#fnrf2dxj9e3lx)" style="stroke: #A80036; stroke-width: 2.0;"/><path d="M431.5,220.9609 C426.5,220.9609 426.5,234.1094 426.5,234.1094 C426.5,247.2578 431.5,247.2578 431.5,247.2578 " fill="none" style="stroke: #A80036; stroke-width: 2.0;"/><text fill="#000000" font-family="sans-serif" font-size="14" lengthAdjust="spacingAndGlyphs" textLength="99" x="322.5" y="238.9561">Load_balancer</text><rect fill="#FEFECE" filter="url(#fnrf2dxj9e3lx)" height="30.2969" style="stroke: #A80036; stroke-width: 1.5;" width="96" x="446.5" y="50.1328"/><text fill="#000000" font-family="sans-serif" font-size="14" lengthAdjust="spacingAndGlyphs" textLength="82" x="453.5" y="70.1279">Web_Server</text><rect fill="#FEFECE" filter="url(#fnrf2dxj9e3lx)" height="30.2969" style="stroke: #A80036; stroke-width: 1.5;" width="96" x="446.5" y="220.9609"/><text fill="#000000" font-family="sans-serif" font-size="14" lengthAdjust="spacingAndGlyphs" textLength="82" x="453.5" y="240.9561">Web_Server</text><rect fill="#FEFECE" filter="url(#fnrf2dxj9e3lx)" height="30.2969" style="stroke: #A80036; stroke-width: 1.5;" width="114" x="556.5" y="50.1328"/><text fill="#000000" font-family="sans-serif" font-size="14" lengthAdjust="spacingAndGlyphs" textLength="100" x="563.5" y="70.1279">Load_Balancer</text><rect fill="#FEFECE" filter="url(#fnrf2dxj9e3lx)" height="30.2969" style="stroke: #A80036; stroke-width: 1.5;" width="114" x="556.5" y="220.9609"/><text fill="#000000" font-family="sans-serif" font-size="14" lengthAdjust="spacingAndGlyphs" textLength="100" x="563.5" y="240.9561">Load_Balancer</text><polygon fill="#A80036" points="149.5,112.5625,159.5,116.5625,149.5,120.5625,153.5,116.5625" style="stroke: #A80036; stroke-width: 1.0;"/><line style="stroke: #A80036; stroke-width: 1.0;" x1="45.5" x2="155.5" y1="116.5625" y2="116.5625"/><text fill="#000000" font-family="sans-serif" font-size="13" lengthAdjust="spacingAndGlyphs" textLength="92" x="52.5" y="111.4966">get index.html</text><polygon fill="#A80036" points="265.5,141.6953,275.5,145.6953,265.5,149.6953,269.5,145.6953" style="stroke: #A80036; stroke-width: 1.0;"/><line style="stroke: #A80036; stroke-width: 1.0;" x1="161.5" x2="271.5" y1="145.6953" y2="145.6953"/><text fill="#000000" font-family="sans-serif" font-size="13" lengthAdjust="spacingAndGlyphs" textLength="92" x="168.5" y="140.6294">get index.html</text><polygon fill="#A80036" points="603.5,170.8281,613.5,174.8281,603.5,178.8281,607.5,174.8281" style="stroke: #A80036; stroke-width: 1.0;"/><line style="stroke: #A80036; stroke-width: 1.0;" x1="277.5" x2="609.5" y1="174.8281" y2="174.8281"/><text fill="#000000" font-family="sans-serif" font-size="13" lengthAdjust="spacingAndGlyphs" textLength="92" x="284.5" y="169.7622">get index.html</text><polygon fill="#A80036" points="507.5,199.9609,497.5,203.9609,507.5,207.9609,503.5,203.9609" style="stroke: #A80036; stroke-width: 1.0;"/><line style="stroke: #A80036; stroke-width: 1.0;" x1="501.5" x2="614.5" y1="203.9609" y2="203.9609"/><text fill="#000000" font-family="sans-serif" font-size="13" lengthAdjust="spacingAndGlyphs" textLength="92" x="513.5" y="198.895">get index.html</text><!--MD5=[f8ed54ba5564b835ce56488d404b293c]
@startuml

box "Local Computer" #LightBlue
participant Browser
database Cache
end box
control Internet
box "Remote Server" #LightBlue
queue Load_balancer
participant Web_Server
end box



Browser -> Cache : get index.html
Cache -> Internet : get index.html
Internet -> Load_Balancer : get index.html
Load_Balancer -> Web_Server : get index.html
@enduml

PlantUML version 1.2020.02(Sun Mar 01 04:22:07 CST 2020)
(GPL source distribution)
Java Runtime: OpenJDK Runtime Environment
JVM: OpenJDK 64-Bit Server VM
Java Version: 11.0.25+9-post-Ubuntu-1ubuntu122.04
Operating System: Linux
Default Encoding: UTF-8
Language: en
Country: US
--></g></svg>