<svg xmlns="http://www.w3.org/2000/svg" width="880" height="320" class="svgbob">
  <style>.svgbob line, .svgbob path, .svgbob circle, .svgbob rect, .svgbob polygon {
  stroke: black;
  stroke-width: 2;
  stroke-opacity: 1;
  fill-opacity: 1;
  stroke-linecap: round;
  stroke-linejoin: miter;
}

.svgbob text {
  white-space: pre;
  fill: black;
  font-family: Iosevka Fixed, monospace;
  font-size: 14px;
}

.svgbob rect.backdrop {
  stroke: none;
  fill: white;
}

.svgbob .broken {
  stroke-dasharray: 8;
}

.svgbob .filled {
  fill: black;
}

.svgbob .bg_filled {
  fill: white;
  stroke-width: 1;
}

.svgbob .nofill {
  fill: white;
}

.svgbob .end_marked_arrow {
  marker-end: url(#arrow);
}

.svgbob .start_marked_arrow {
  marker-start: url(#arrow);
}

.svgbob .end_marked_diamond {
  marker-end: url(#diamond);
}

.svgbob .start_marked_diamond {
  marker-start: url(#diamond);
}

.svgbob .end_marked_circle {
  marker-end: url(#circle);
}

.svgbob .start_marked_circle {
  marker-start: url(#circle);
}

.svgbob .end_marked_open_circle {
  marker-end: url(#open_circle);
}

.svgbob .start_marked_open_circle {
  marker-start: url(#open_circle);
}

.svgbob .end_marked_big_open_circle {
  marker-end: url(#big_open_circle);
}

.svgbob .start_marked_big_open_circle {
  marker-start: url(#big_open_circle);
}

</style>
  <defs>
    <marker id="arrow" viewBox="-2 -2 8 8" refX="4" refY="2" markerWidth="7" markerHeight="7" orient="auto-start-reverse">
      <polygon points="0,0 0,4 4,2 0,0"></polygon>
    </marker>
    <marker id="diamond" viewBox="-2 -2 8 8" refX="4" refY="2" markerWidth="7" markerHeight="7" orient="auto-start-reverse">
      <polygon points="0,2 2,0 4,2 2,4 0,2"></polygon>
    </marker>
    <marker id="circle" viewBox="0 0 8 8" refX="4" refY="4" markerWidth="7" markerHeight="7" orient="auto-start-reverse">
      <circle cx="4" cy="4" r="2" class="filled"></circle>
    </marker>
    <marker id="open_circle" viewBox="0 0 8 8" refX="4" refY="4" markerWidth="7" markerHeight="7" orient="auto-start-reverse">
      <circle cx="4" cy="4" r="2" class="bg_filled"></circle>
    </marker>
    <marker id="big_open_circle" viewBox="0 0 8 8" refX="4" refY="4" markerWidth="7" markerHeight="7" orient="auto-start-reverse">
      <circle cx="4" cy="4" r="3" class="bg_filled"></circle>
    </marker>
  </defs>
  <rect class="backdrop" x="0" y="0" width="880" height="320"></rect>
  <text x="370" y="28" >URL</text>
  <path d="M 408,16 A 16,16 0,0,0 408,32" class="nofill"></path>
  <text x="410" y="28" >serialized</text>
  <text x="498" y="28" >string</text>
  <path d="M 544,16 A 16,16 0,0,1 544,32" class="nofill"></path>
  <text x="42" y="60" >origin...</text>
  <text x="154" y="60" >except</text>
  <text x="210" y="60" >userinfo</text>
  <text x="314" y="60" >...</text>
  <text x="346" y="60" >origin</text>
  <text x="26" y="92" >scheme</text>
  <text x="114" y="92" >:</text>
  <line x1="128" y1="80" x2="120" y2="96" class="solid"></line>
  <line x1="136" y1="80" x2="128" y2="96" class="solid"></line>
  <text x="314" y="92" >authority</text>
  <text x="618" y="92" >path</text>
  <text x="722" y="92" >query</text>
  <text x="794" y="92" >fragment</text>
  <text x="178" y="124" >userinfo</text>
  <text x="354" y="124" >host</text>
  <text x="498" y="124" >port</text>
  <text x="578" y="140" >segments</text>
  <path d="M 656,128 A 16,16 0,0,0 656,144" class="nofill"></path>
  <path d="M 680,128 A 16,16 0,0,1 680,144" class="nofill"></path>
  <text x="154" y="156" >username</text>
  <text x="226" y="156" >:pass</text>
  <text x="578" y="156" >seg</text>
  <line x1="616" y1="144" x2="608" y2="160" class="solid"></line>
  <text x="626" y="156" >seg</text>
  <line x1="664" y1="144" x2="656" y2="160" class="solid"></line>
  <text x="674" y="156" >…</text>
  <text x="18" y="188" >https</text>
  <text x="114" y="188" >:</text>
  <line x1="128" y1="176" x2="120" y2="192" class="solid"></line>
  <line x1="136" y1="176" x2="128" y2="192" class="solid"></line>
  <text x="162" y="188" >user</text>
  <text x="218" y="188" >:</text>
  <text x="234" y="188" >pass</text>
  <text x="274" y="188" >@</text>
  <text x="290" y="188" >sub1.sub2.example.com</text>
  <text x="466" y="188" >:</text>
  <text x="482" y="188" >8080</text>
  <line x1="584" y1="176" x2="576" y2="192" class="solid"></line>
  <text x="586" y="188" >p</text>
  <line x1="600" y1="176" x2="592" y2="192" class="solid"></line>
  <text x="602" y="188" >a</text>
  <line x1="616" y1="176" x2="608" y2="192" class="solid"></line>
  <text x="618" y="188" >t</text>
  <line x1="632" y1="176" x2="624" y2="192" class="solid"></line>
  <text x="634" y="188" >h</text>
  <line x1="648" y1="176" x2="640" y2="192" class="solid"></line>
  <text x="650" y="188" >a.html</text>
  <text x="722" y="188" >?q</text>
  <line x1="736" y1="182" x2="744" y2="182" class="solid"></line>
  <line x1="736" y1="186" x2="744" y2="186" class="solid"></line>
  <text x="746" y="188" >1</text>
  <text x="802" y="188" >#frag</text>
  <text x="2" y="236" >Origin</text>
  <line x1="56" y1="230" x2="64" y2="230" class="solid"></line>
  <line x1="56" y1="234" x2="64" y2="234" class="solid"></line>
  <text x="2" y="252" >Host</text>
  <line x1="56" y1="246" x2="64" y2="246" class="solid"></line>
  <line x1="56" y1="250" x2="64" y2="250" class="solid"></line>
  <text x="2" y="268" >Path</text>
  <line x1="56" y1="262" x2="64" y2="262" class="solid"></line>
  <line x1="56" y1="266" x2="64" y2="266" class="solid"></line>
  <text x="2" y="284" >Fragment</text>
  <text x="2" y="300" >Userinfo</text>
  <text x="74" y="236" >scheme</text>
  <text x="130" y="236" >+</text>
  <text x="146" y="236" >host</text>
  <text x="186" y="236" >+</text>
  <text x="330" y="236" >no</text>
  <text x="354" y="236" >userinfo,</text>
  <text x="434" y="236" >no</text>
  <text x="458" y="236" >path</text>
  <line x1="496" y1="224" x2="488" y2="240" class="solid"></line>
  <text x="498" y="236" >query</text>
  <line x1="544" y1="224" x2="536" y2="240" class="solid"></line>
  <text x="546" y="236" >fragment</text>
  <path d="M 608,224 A 16,16 0,0,1 608,240" class="nofill"></path>
  <text x="74" y="252" >hostname</text>
  <text x="146" y="252" >or</text>
  <text x="170" y="252" >IP</text>
  <text x="330" y="252" >optionally</text>
  <text x="418" y="252" >with</text>
  <text x="458" y="252" >port;</text>
  <text x="506" y="252" >no</text>
  <line x1="616" y1="240" x2="608" y2="256" class="solid"></line>
  <text x="618" y="252" >domain</text>
  <line x1="672" y1="240" x2="664" y2="256" class="solid"></line>
  <text x="74" y="268" >opaque</text>
  <text x="130" y="268" >sequence</text>
  <text x="202" y="268" >of</text>
  <text x="226" y="268" >segments</text>
  <line x1="520" y1="256" x2="512" y2="272" class="solid"></line>
  <text x="522" y="268" >filename</text>
  <line x1="592" y1="256" x2="584" y2="272" class="solid"></line>
  <path d="M 728,256 A 16,16 0,0,1 728,272" class="nofill"></path>
  <text x="74" y="284" >is</text>
  <text x="98" y="284" >client</text>
  <line x1="144" y1="280" x2="152" y2="280" class="solid"></line>
  <text x="154" y="284" >side</text>
  <text x="194" y="284" >only</text>
  <text x="330" y="284" >not</text>
  <text x="362" y="284" >sent</text>
  <text x="402" y="284" >to</text>
  <text x="426" y="284" >the</text>
  <text x="458" y="284" >server</text>
  <path d="M 504,272 A 16,16 0,0,1 504,288" class="nofill"></path>
  <text x="74" y="300" >may</text>
  <text x="106" y="300" >contain</text>
  <text x="170" y="300" >username[:password]</text>
  <text x="330" y="300" >passwords</text>
  <text x="410" y="300" >in</text>
  <text x="434" y="300" >URLs</text>
  <text x="474" y="300" >are</text>
  <text x="506" y="300" >discouraged</text>
  <path d="M 592,288 A 16,16 0,0,1 592,304" class="nofill"></path>
  <text x="202" y="236" >port</text>
  <text x="762" y="252" >in</text>
  <text x="786" y="252" >URL</text>
  <text x="818" y="252" >syntax</text>
  <path d="M 864,240 A 16,16 0,0,1 864,256" class="nofill"></path>
  <text x="658" y="140" >/</text>
  <g>
    <line x1="4" y1="8" x2="860" y2="8" class="solid"></line>
    <line x1="4" y1="8" x2="4" y2="200" class="solid"></line>
    <line x1="860" y1="8" x2="860" y2="200" class="solid"></line>
    <line x1="4" y1="40" x2="860" y2="40" class="solid"></line>
    <line x1="148" y1="40" x2="148" y2="168" class="solid"></line>
    <line x1="276" y1="40" x2="276" y2="72" class="solid"></line>
    <line x1="556" y1="40" x2="556" y2="168" class="solid"></line>
    <line x1="4" y1="72" x2="860" y2="72" class="solid"></line>
    <line x1="100" y1="72" x2="100" y2="168" class="solid"></line>
    <line x1="708" y1="72" x2="708" y2="168" class="solid"></line>
    <line x1="780" y1="72" x2="780" y2="168" class="solid"></line>
    <line x1="148" y1="104" x2="556" y2="104" class="solid"></line>
    <line x1="276" y1="104" x2="276" y2="168" class="solid"></line>
    <line x1="468" y1="104" x2="468" y2="168" class="solid"></line>
    <line x1="148" y1="136" x2="468" y2="136" class="solid"></line>
    <line x1="4" y1="168" x2="860" y2="168" class="solid"></line>
    <line x1="4" y1="200" x2="860" y2="200" class="solid"></line>
  </g>
  <g>
    <path d="M 328,224 A 16,16 0,0,0 328,240" class="nofill"></path>
    <path d="M 328,240 A 16,16 0,0,0 328,256" class="nofill"></path>
    <path d="M 328,256 A 16,16 0,0,0 328,272" class="nofill"></path>
    <path d="M 328,272 A 16,16 0,0,0 328,288" class="nofill"></path>
    <path d="M 328,288 A 16,16 0,0,0 328,304" class="nofill"></path>
  </g>
  <g>
    <text x="530" y="252">“</text>
    <text x="538" y="252">subdomain</text>
  </g>
  <g>
    <text x="674" y="252">TLD”</text>
    <text x="714" y="252">split</text>
  </g>
  <g>
    <text x="330" y="268">don’assume</text>
    <text x="362" y="268">t</text>
  </g>
  <g>
    <text x="434" y="268">“</text>
    <text x="442" y="268">directory</text>
  </g>
  <g>
    <text x="594" y="268">suffix”</text>
    <text x="658" y="268">semantics</text>
  </g>
</svg>